<mxfile host="app.diagrams.net" modified="2024-01-21T12:46:05.458Z" agent="Mozilla/5.0 (X11; Linux x86_64) AppleWebKit/537.36 (KHTML, like Gecko) Chrome/120.0.0.0 Safari/537.36" etag="iKBnIosS_B-R9lmZZ-k4" version="22.1.21" type="device">
  <diagram name="Page-1" id="wuWEdqvq8Bu1lgZukEeU">
    <mxGraphModel dx="954" dy="561" grid="1" gridSize="10" guides="1" tooltips="1" connect="1" arrows="1" fold="1" page="1" pageScale="1" pageWidth="827" pageHeight="1169" math="0" shadow="0">
      <root>
        <mxCell id="0" />
        <mxCell id="1" parent="0" />
        <mxCell id="ACd-QYny71i_hxN_7XtB-8" value="" style="rounded=0;whiteSpace=wrap;html=1;" vertex="1" parent="1">
          <mxGeometry x="80" y="40" width="600" height="360" as="geometry" />
        </mxCell>
        <mxCell id="ACd-QYny71i_hxN_7XtB-1" value="nginx(80/443)" style="rounded=0;whiteSpace=wrap;html=1;" vertex="1" parent="1">
          <mxGeometry x="130" y="200" width="110" height="60" as="geometry" />
        </mxCell>
        <mxCell id="ACd-QYny71i_hxN_7XtB-2" value="server-web(8000)" style="rounded=0;whiteSpace=wrap;html=1;" vertex="1" parent="1">
          <mxGeometry x="320" y="200" width="120" height="60" as="geometry" />
        </mxCell>
        <mxCell id="ACd-QYny71i_hxN_7XtB-3" value="server-game(8080)" style="rounded=0;whiteSpace=wrap;html=1;" vertex="1" parent="1">
          <mxGeometry x="320" y="300" width="120" height="60" as="geometry" />
        </mxCell>
        <mxCell id="ACd-QYny71i_hxN_7XtB-4" value="pgadmin(8084)" style="rounded=0;whiteSpace=wrap;html=1;" vertex="1" parent="1">
          <mxGeometry x="320" y="100" width="120" height="60" as="geometry" />
        </mxCell>
        <mxCell id="ACd-QYny71i_hxN_7XtB-5" value="pgsql(5432)" style="rounded=0;whiteSpace=wrap;html=1;" vertex="1" parent="1">
          <mxGeometry x="520" y="200" width="120" height="60" as="geometry" />
        </mxCell>
      </root>
    </mxGraphModel>
  </diagram>
</mxfile>
